<svg xmlns="http://www.w3.org/2000/svg" xmlns:xlink="http://www.w3.org/1999/xlink" version="1.1" x="0px" y="0px" viewBox="0 0 100 125" enable-background="new 0 0 100 100" xml:space="preserve"><g><path fill="none" d="M22.068,60.116h6.143v-2.281c0-2.156,1.754-3.909,3.91-3.909h6.066c2.156,0,3.91,1.754,3.91,3.909v2.281   h15.807v-2.281c0-2.156,1.754-3.909,3.91-3.909h6.066c2.156,0,3.91,1.754,3.91,3.909v2.281h6.143c4.617,0,8.975-1.68,12.378-4.748   V32.374c0-1.34-1.09-2.43-2.43-2.43H12.12c-1.34,0-2.431,1.09-2.431,2.43v22.994C13.093,58.436,17.451,60.116,22.068,60.116z"/><rect x="62.593" y="64.805" fill="none" width="4.507" height="4.106"/><path fill="none" d="M64.801,21.803c0-2.426-1.974-4.4-4.4-4.4H39.6c-2.426,0-4.4,1.974-4.4,4.4v3.451h29.601V21.803z"/><rect x="62.593" y="58.615" fill="none" width="4.507" height="1.501"/><rect x="32.9" y="64.805" fill="none" width="4.507" height="4.106"/><rect x="32.9" y="58.615" fill="none" width="4.507" height="1.501"/><path fill="none" d="M77.932,64.805h-6.143v4.886c0,2.156-1.754,3.91-3.91,3.91h-6.066c-2.156,0-3.91-1.754-3.91-3.91v-4.886   H42.096v4.886c0,2.156-1.754,3.91-3.91,3.91h-6.066c-2.156,0-3.91-1.754-3.91-3.91v-4.886h-6.143   c-4.451,0-8.708-1.251-12.378-3.576v14.36c0,3.864,3.144,7.007,7.007,7.007h66.607c3.864,0,7.007-3.144,7.007-7.007V61.23   C86.641,63.554,82.384,64.805,77.932,64.805z"/><path d="M87.88,25.254H69.49v-3.451c0-5.012-4.078-9.09-9.09-9.09H39.6c-5.012,0-9.09,4.078-9.09,9.09v3.451H12.12   c-3.926,0-7.12,3.194-7.12,7.12V75.59c0,6.45,5.247,11.697,11.697,11.697h66.607C89.753,87.286,95,82.039,95,75.59V32.374   C95,28.448,91.806,25.254,87.88,25.254z M35.199,21.803c0-2.426,1.974-4.4,4.4-4.4h20.801c2.426,0,4.4,1.974,4.4,4.4v3.451H35.199   V21.803z M12.12,29.944h75.76c1.34,0,2.43,1.09,2.43,2.43v22.994c-3.404,3.068-7.762,4.748-12.378,4.748h-6.143v-2.281   c0-2.156-1.754-3.909-3.91-3.909h-6.066c-2.156,0-3.91,1.754-3.91,3.909v2.281H42.096v-2.281c0-2.156-1.754-3.909-3.91-3.909   h-6.066c-2.156,0-3.91,1.754-3.91,3.909v2.281h-6.143c-4.617,0-8.975-1.68-12.378-4.748V32.374   C9.69,31.034,10.78,29.944,12.12,29.944z M62.593,64.805H67.1v4.106h-4.507V64.805z M62.593,60.116v-1.501H67.1v1.501H62.593z    M32.9,64.805h4.507v4.106H32.9V64.805z M32.9,60.116v-1.501h4.507v1.501H32.9z M83.303,82.597H16.697   c-3.864,0-7.007-3.144-7.007-7.007V61.23c3.671,2.325,7.927,3.576,12.378,3.576h6.143v4.886c0,2.156,1.754,3.91,3.91,3.91h6.066   c2.156,0,3.91-1.754,3.91-3.91v-4.886h15.807v4.886c0,2.156,1.754,3.91,3.91,3.91h6.066c2.156,0,3.91-1.754,3.91-3.91v-4.886h6.143   c4.452,0,8.709-1.251,12.378-3.575v14.36C90.31,79.453,87.167,82.597,83.303,82.597z"/></g></svg>